<svg xmlns="http://www.w3.org/2000/svg" width="24" height="24" fill="#68a2fd">
    <path fill="#68a2fd" fill-rule="evenodd" d="M1.5 6a.5.5 0 0 1 .5-.5h20a.5.5 0 0 1 .5.5v7a.5.5 0 0 1-.438.496l-8 1-.124-.992 7.562-.945V6.5h-19v6.059l7.562.945-.124.992-8-1A.5.5 0 0 1 1.5 13V6Z" clip-rule="evenodd" />
    <path fill="#68a2fd" fill-rule="evenodd" d="M9.5 11.5a.5.5 0 0 1 .5-.5h4a.5.5 0 0 1 .5.5v5a.5.5 0 0 1-.5.5h-4a.5.5 0 0 1-.5-.5v-5zm1 .5v4h3v-4h-3zm-2-7.5a2 2 0 0 1 2-2h3a2 2 0 0 1 2 2V6h-1V4.5a1 1 0 0 0-1-1h-3a1 1 0 0 0-1 1V6h-1V4.5z" clip-rule="evenodd" />
    <path fill="#68a2fd" fill-rule="evenodd" d="M2.5 21v-7.5h1v7h17v-7h1V21a.5.5 0 0 1-.5.5H3a.5.5 0 0 1-.5-.5Z" clip-rule="evenodd" />
</svg>